<?xml version="1.0" standalone="no"?>
<!DOCTYPE svg PUBLIC "-//W3C//DTD SVG 1.1//EN" "http://www.w3.org/Graphics/SVG/1.1/DTD/svg11.dtd" >
<!--
2013-9-30: Created.
-->
<svg>
<metadata>
Created by iconfont
</metadata>
<defs>

<font id="iconfont" horiz-adv-x="1024" >
  <font-face
    font-family="iconfont"
    font-weight="500"
    font-stretch="normal"
    units-per-em="1024"
    ascent="896"
    descent="-128"
  />
    <missing-glyph />
    
    <glyph glyph-name="x" unicode="x" horiz-adv-x="1001"
d="M281 543q-27 -1 -53 -1h-83q-18 0 -36.5 -6t-32.5 -18.5t-23 -32t-9 -45.5v-76h912v41q0 16 -0.5 30t-0.5 18q0 13 -5 29t-17 29.5t-31.5 22.5t-49.5 9h-133v-97h-438v97zM955 310v-52q0 -23 0.5 -52t0.5 -58t-10.5 -47.5t-26 -30t-33 -16t-31.5 -4.5q-14 -1 -29.5 -0.5
t-29.5 0.5h-32l-45 128h-439l-44 -128h-29h-34q-20 0 -45 1q-25 0 -41 9.5t-25.5 23t-13.5 29.5t-4 30v167h911zM163 247q-12 0 -21 -8.5t-9 -21.5t9 -21.5t21 -8.5q13 0 22 8.5t9 21.5t-9 21.5t-22 8.5zM316 123q-8 -26 -14 -48q-5 -19 -10.5 -37t-7.5 -25t-3 -15t1 -14.5
t9.5 -10.5t21.5 -4h37h67h81h80h64h36q23 0 34 12t2 38q-5 13 -9.5 30.5t-9.5 34.5q-5 19 -11 39h-368zM336 498v228q0 11 2.5 23t10 21.5t20.5 15.5t34 6h188q31 0 51.5 -14.5t20.5 -52.5v-227h-327z" />
    

    
    <glyph glyph-name="wx" unicode="&#923146;" d="M570.625 385.206c-10.16 0-20.321-9.435-20.321-21.046 0-9.435 10.16-18.869 20.321-18.869 15.24 0 26.126 9.435 26.126 18.869-0 11.611-10.886 21.046-26.126 21.046zM503.856 483.182c15.966 0 26.126 10.16 26.126 25.401 0 15.966-10.16 25.401-26.126 25.401-15.24 0-29.755-9.435-29.755-25.401-0-15.241 14.515-25.401 29.755-25.401zM511.839 830.283c-246.010 0-445.44-199.43-445.44-445.44s199.43-445.44 445.44-445.44 445.44 199.43 445.44 445.44-199.43 445.44-445.44 445.44zM427.653 271.99c-26.852 0-46.448 4.354-71.849 11.612l-73.3-37.014 21.046 62.414c-51.528 36.287-82.009 82.009-82.009 137.892 0 98.701 92.895 174.178 206.112 174.178 100.152 0 189.42-59.511 206.838-143.698-7.257 1.451-13.789 2.177-19.595 2.177-98.701 0-174.904-74.026-174.904-163.292 0-15.24 2.177-29.029 5.806-43.545-5.806-0.725-12.338-0.725-18.144-0.725zM730.289 200.867l14.515-52.254-55.157 31.207c-21.046-4.354-41.368-10.886-62.414-10.886-97.25 0-174.178 66.769-174.178 149.503s76.929 149.503 174.178 149.503c92.169 0 174.904-66.769 174.904-149.503-0.001-46.448-31.207-87.815-71.849-117.571zM360.159 533.983c-15.24 0-31.207-9.435-31.207-25.401 0-15.24 15.966-25.401 31.207-25.401 14.515 0 26.126 10.16 26.126 25.401 0 15.967-11.612 25.401-26.126 25.401zM684.567 385.206c-10.886 0-20.321-9.435-20.321-21.046 0-9.435 9.435-18.869 20.321-18.869 14.515 0 25.401 9.435 25.401 18.869 0 11.611-10.886 21.046-25.401 21.046z"  horiz-adv-x="1024" />

    
    <glyph glyph-name="iconfontguanbi2" unicode="&#58910;" d="M843.741184 574.658304 786.397184 633.026304 511.364096 357.147392 236.509184 632.002304 179.165184 573.634304 453.597184 299.202304 179.165184 23.746304 236.509184-34.621696 511.541248 241.25824 786.397184-33.597696 843.741184 24.770304 569.309184 299.202304Z"  horiz-adv-x="1024" />

    
    <glyph glyph-name="iconfontpaperclip" unicode="&#58890;" d="M673.994 895.98q41.676 0 79.993-15.667 39.997-15.995 70.675-46.673 31.006-31.334 46.673-70.327 15.339-37.662 15.339-79.993t-15.339-79.993q-15.667-38.993-46.673-70.327l-392.655-392.655q-18.002-18.002-42.659-28.323-24.002-9.339-48.004-9.339t-48.004 9.339q-24.657 10.342-42.659 28.323-18.657 18.657-27.996 42.331-9.339 22.671-9.339 48.004 0 25.661 9.339 48.332 9.339 23.326 27.996 42.331l362.325 361.997q12.677 12.677 30.33 12.677 17.326 0 30.003-12.677t12.677-30.003q0-17.674-12.677-30.33l-362.325-361.997q-12.329-12.329-12.329-30.33 0-17.674 12.329-30.003 13.332-12.677 30.33-12.677t30.33 12.677l392.655 392.655q37.007 37.007 37.007 90.008t-37.007 90.008q-37.99 37.334-90.335 37.334-52.674 0-90.008-37.334l-393.659-391.652q-30.658-30.658-46.673-70.675-15.667-38.338-15.667-80.341 0-41.328 15.667-80.341 15.995-39.669 46.673-70.327 31.661-31.334 70.675-47.001t80.341-15.667 80.341 15.667 70.675 47.001l392 392q12.677 12.677 30.33 12.677 17.326 0 30.003-12.677t12.677-30.003q0-17.674-12.677-30.33l-392-392q-43.007-43.007-98.998-65.658-53.329-21.995-112.331-21.995-58.674 0-112.331 21.995-55.991 22.671-98.998 65.658-42.659 42.659-65.33 98.671-21.995 54.005-21.995 112.331 0 58.674 21.995 112.331 22.323 55.336 65.33 98.998h0.328l393.331 391.652q30.658 30.658 70.327 46.673 38.993 15.667 79.993 15.667z"  horiz-adv-x="1024" />

    
    <glyph glyph-name="dianhua" unicode="&#59081;" d="M699.016533 197.461333c-26.077867 25.224533-77.1072 67.515733-125.3376 67.549867-16.110933 0-30.993067-4.642133-43.246933-13.482667l-30.754133-22.254933c-48.162133 10.24-97.553067 52.224-132.676267 113.083733-35.191467 60.859733-46.865067 124.586667-31.709867 171.4176l34.645333 15.5648c44.168533 19.8656 58.504533 76.936533 40.516267 160.836267-14.506667 67.515733-63.761067 195.140267-146.7392 195.140267-7.9872 0-16.042667-1.262933-23.688533-3.754667L181.3504 862.583467C131.072 846.267733 93.218133 804.078933 82.5344 752.401067 51.063467 600.7808 90.5216 414.242133 190.7712 240.605867c100.317867-173.602133 242.244267-301.021867 389.2224-349.4912 14.9504-4.881067 30.446933-7.406933 46.148267-7.406933 36.522667 0 71.611733 13.448533 98.679467 37.888l45.738667 41.301333c16.247467 14.6432 39.901867 48.605867 15.701333 111.547733C771.652267 112.469333 738.269867 159.607467 699.016533 197.461333zM737.211733-0.136533l-45.738667-41.301333c-17.92-16.1792-41.198933-25.088-65.3312-25.088-10.376533 0-20.650667 1.6384-30.5152 4.9152-135.645867 44.714667-267.502933 163.9424-361.7792 327.133867C139.639467 428.680533 102.1952 602.487467 131.2768 742.2976 138.376533 776.4992 163.396267 804.4544 196.676267 815.240533l58.641067 19.0464C258.116267 835.140267 260.881067 835.584 263.714133 835.584c38.7072 0 81.988267-80.554667 98.133333-155.8528 11.844267-55.125333 6.9632-96.324267-12.219733-105.028267l-52.667733-23.620267-1.3312-2.7648c-29.252267-61.508267-18.432-149.981867 28.2624-230.843733 46.728533-80.930133 117.930667-134.485333 185.856-139.8784l3.072-0.238933 46.762667 33.826133c3.754667 2.730667 8.328533 4.061867 14.097067 4.061867 46.250667-0.034133 139.400533-88.951467 166.126933-158.583467C746.939733 38.229333 752.264533 13.380267 737.211733-0.136533zM906.376533 623.7184c-54.715733 107.8272-148.138667 187.869867-263.133867 225.416533-2.4576 0.8192-5.085867 1.262933-7.714133 1.262933-10.786133 0-20.2752-6.894933-23.620267-17.169067-4.232533-13.0048 2.901333-27.067733 15.940267-31.3344 102.331733-33.416533 185.514667-104.686933 234.154667-200.635733 48.776533-95.982933 57.173333-205.175467 23.7568-307.5072-4.266667-13.038933 2.901333-27.101867 15.9744-31.3344 2.423467-0.8192 5.0176-1.262933 7.68-1.262933 10.786133 0 20.343467 6.894933 23.688533 17.169067C970.615467 393.250133 961.092267 515.8912 906.376533 623.7184zM596.650667 706.286933c-2.491733 0.785067-5.085867 1.2288-7.748267 1.2288-10.786133 0-20.343467-6.894933-23.620267-17.169067-4.266667-13.0048 2.901333-27.101867 15.906133-31.3344 64.1024-20.8896 116.189867-65.604267 146.773333-125.883733 30.583467-60.279467 35.976533-128.7168 14.9504-192.750933-4.232533-13.038933 2.935467-27.101867 15.9744-31.402667 2.525867-0.785067 5.12-1.194667 7.748267-1.194667 10.786133 0 20.309333 6.894933 23.620267 17.134933 25.019733 76.6976 18.670933 158.6176-17.92 230.7072C735.675733 627.746133 673.28 681.233067 596.650667 706.286933zM534.528 516.1984c53.725867-17.578667 83.080533-75.502933 65.536-129.194667-4.232533-13.0048 2.935467-27.067733 15.9744-31.368533 2.491733-0.785067 5.085867-1.2288 7.68-1.2288 10.820267 0 20.343467 6.929067 23.688533 17.169067 26.077867 79.735467-17.681067 165.819733-97.416533 191.8976-2.4576 0.8192-5.085867 1.262933-7.748267 1.262933-10.786133 0-20.2752-6.894933-23.6544-17.134933C514.3552 534.493867 521.489067 520.430933 534.528 516.1984z"  horiz-adv-x="1024" />

    
    <glyph glyph-name="qq" unicode="&#923162;" d="M510.839 863.378c267.286 0 483.963-216.675 483.963-483.963 0-267.299-216.675-483.974-483.963-483.974s-483.974 216.675-483.974 483.974c0 267.286 216.688 483.963 483.974 483.963zM784.262 231.131c8.546 7.335 25.684 37.909 8.546 102.725-17.103 64.816-50.205 79.615-49.494 91.758 1.49 25.299 0.617 43.067-0.641 47.666-6.112 22.285-18.896 17.359-18.896 22.285 0 128.293-95.345 232.3-212.938 232.3-117.605 0-212.95-104.006-212.95-232.3 0-10.188-8.93-2.655-16.266-22.285-3.283-8.767 1.525-14.308 0-47.666-0.419-8.964-38.643-49.575-53.813-91.758-15.042-41.833-17.116-85.553 6.112-102.725 23.239-17.185 44.883 57.19 47.701 46.363 1.222-4.715 2.77-9.629 4.61-14.682 7.452-20.259 19.945-42.695 38.037-63.663 3.68-4.273-22.401-12.097-38.037-39.004-15.626-26.908 4.494-75.83 82.223-75.83 100.269 0 122.693 35.685 124.742 35.534 7.452-0.582 7.975 0 15.892 0 9.676 0 5.67-0.791 14.671 0 4.854 0.419 53.604-42.706 121.075-35.534 114.962 12.237 97.394 51.229 88.37 75.83-9.431 25.684-42.718 37.712-41.251 39.354 27.524 30.795 31.902 49.703 41.251 77.996 3.83 11.632 30.516-63.979 51.054-46.363z"  horiz-adv-x="1024" />

    
    <glyph glyph-name="mj05jiaoyi" unicode="&#58908;" d="M623.482047 160.446481 288.146653 160.446481c-15.431457 0-27.944446-12.514012-27.944446-27.944446 0-15.436574 12.514012-27.950586 27.944446-27.950586l335.335395 0c15.431457 0 27.944446 12.514012 27.944446 27.950586C651.426493 147.93247 638.913505 160.446481 623.482047 160.446481zM288.146653 328.114179l279.446503 0c15.431457 0 27.944446 12.507872 27.944446 27.944446 0 15.431457-12.514012 27.944446-27.944446 27.944446L288.146653 384.00307c-15.431457 0-27.944446-12.514012-27.944446-27.944446C260.202207 340.62205 272.715195 328.114179 288.146653 328.114179zM819.09419 775.227356 651.426493 775.227356c0 30.861892-25.021883 55.883775-55.888891 55.883775L427.869904 831.111131c-30.868031 0-55.888891-25.021883-55.888891-55.883775L204.312292 775.227356c-61.73504 0-111.778806-50.048883-111.778806-111.783923l0-614.781898c0-61.73504 50.043766-111.772666 111.778806-111.772666l614.781898 0c61.73504 0 111.778806 50.037626 111.778806 111.772666l0 614.781898C930.872996 725.178473 880.82923 775.227356 819.09419 775.227356zM427.869904 775.227356 595.537602 775.227356l0-111.783923L427.869904 663.443433 427.869904 775.227356zM874.983081 523.726322l0-530.953677L148.423401-7.227356 148.423401 523.726322 148.423401 719.332325l223.556589 0 0-55.888891c0-30.861892 25.021883-55.888891 55.888891-55.888891L595.537602 607.554542c30.868031 0 55.888891 25.027 55.888891 55.888891l0 55.888891 223.556589 0L874.983081 523.726322zM847.038636 551.670767 176.367847 551.670767c-15.431457 0-27.944446-12.514012-27.944446-27.944446 0-15.436574 12.514012-27.950586 27.944446-27.950586l670.670789 0c15.431457 0 27.944446 12.514012 27.944446 27.950586C874.983081 539.156756 862.470093 551.670767 847.038636 551.670767zM735.260853 272.219147 288.146653 272.219147c-15.431457 0-27.944446-12.514012-27.944446-27.944446 0-15.431457 12.514012-27.944446 27.944446-27.944446l447.114201 0c15.436574 0 27.944446 12.514012 27.944446 27.944446C763.205299 259.705136 750.697427 272.219147 735.260853 272.219147z"  horiz-adv-x="1024" />

    
    <glyph glyph-name="mj13tishi02" unicode="&#58913;" d="M512.37146 831.845865c-247.362784 0-447.891913-200.529129-447.891913-447.90317 0-247.367901 200.529129-447.898053 447.891913-447.898053 247.367901 0 447.898053 200.529129 447.898053 447.898053C960.269513 631.316735 759.739361 831.845865 512.37146 831.845865zM631.17117 185.983087 512.378623 304.778704 393.616776 186.010717l-79.18241 79.177294L433.200306 383.960091 314.456878 502.708636l79.177294 79.171154 118.746498-118.735242 118.774127 118.780267 79.18241-79.177294L591.56308 383.968278l118.7905-118.779244L631.17117 185.983087z"  horiz-adv-x="1024" />

    
    <glyph glyph-name="mj12tishi01" unicode="&#58914;" d="M512.36532 831.845865c-247.362784 0-447.891913-200.540386-447.891913-447.909309 0-247.362784 200.529129-447.891913 447.891913-447.891913 247.367901 0 447.898053 200.529129 447.898053 447.891913C960.263373 631.305479 759.734244 831.845865 512.36532 831.845865zM568.347333 104.017284l-111.980397 0L456.366935 216.008938l111.980397 0L568.347333 104.017284zM568.347333 327.989335l-111.980397 0L456.366935 607.902466l111.980397 0L568.347333 327.989335z"  horiz-adv-x="1024" />

    
    <glyph glyph-name="mj14tishi03" unicode="&#58917;" d="M511.99693 831.863261c-247.362784 0-447.891913-200.529129-447.891913-447.886797 0-247.37404 200.529129-447.90317 447.891913-447.90317 247.367901 0 447.898053 200.529129 447.898053 447.90317C959.894983 631.333108 759.364831 831.863261 511.99693 831.863261zM718.069309 458.66349 500.508271 239.994212c-1.830695-2.63706-2.945075-5.632277-5.307889-8.02886-10.985192-10.990309-25.457812-16.07921-39.851637-15.727193-14.388708-0.353041-28.867468 4.736884-39.84652 15.766079-2.345418 2.356674-3.465938 5.351891-5.290493 7.988951L303.96492 346.655464c-21.269419 21.330818-21.269419 55.993269 0 77.324086 21.269419 21.348214 55.751768 21.348214 77.016071 0l74.379011-74.659397 185.693236 186.622398c21.264303 21.319561 55.746652 21.319561 77.016071 0C739.338728 514.600477 739.338728 479.966679 718.069309 458.66349z"  horiz-adv-x="1024" />

    
    <glyph glyph-name="upload" unicode="&#58907;" d="M262.767636 521.593751c7.471159-7.694239 19.755949-5.748934 28.946262 3.441379l203.316615 196.271152 0-533.10262c0-13.007245 4.263094-23.564695 17.270339-23.564695 13.007245 0 19.400862 10.556427 19.400862 23.564695L531.701714 719.497077l197.935048-194.461947c9.190313-9.190313 20.243043-12.326746 29.433356-3.136433s7.963369 19.650549-1.225921 28.840862l-218.213907 206.963679c-2.164293 1.976004-21.296025 19.475564-27.328415 19.475564-6.03239 0-23.01518-17.932418-25.660426-20.425192l-221.433228-208.316489C256.016885 539.246807 257.656221 526.947689 262.767636 521.593751L262.767636 521.593751 262.767636 521.593751zM888.7312-9.177777 134.666072-9.177777c-38.975686 0-70.694085 31.718399-70.694085 70.694085l0 94.257757c0 13.007245 8.812713 23.564695 21.819958 23.564695 13.007245 0 20.039405-10.556427 20.039405-23.564695l0-94.257757c0-14.012132 15.60542-31.152511 28.833699-31.152511l754.065128 0c16.175401 0 31.226189 14.07046 31.226189 31.152511l0 94.257757c0 13.007245 6.433526 23.564695 19.441794 23.564695 13.007245 0 20.026102-10.556427 20.026102-23.564695l0-94.257757C959.425286 22.539598 927.706887-9.177777 888.7312-9.177777L888.7312-9.177777z"  horiz-adv-x="1024" />

    
    <glyph glyph-name="mj16kuaijiecaidan" unicode="&#58919;" d="M272.132934-95.221456l0 160.024623 320.049247 320.049247-320.049247 320.049247L272.132934 864.926284l480.07387-480.07387L272.132934-95.221456"  horiz-adv-x="1024" />

    
    <glyph glyph-name="mj23rilixuanze" unicode="&#58923;" d="M455.975009 104.383628l112.049982 0L568.024991 216.42747 455.975009 216.42747 455.975009 104.383628zM455.975009 272.463718l112.049982 0L568.024991 384.50756 455.975009 384.50756 455.975009 272.463718zM287.894919 272.463718l112.049982 0L399.944901 384.50756 287.894919 384.50756 287.894919 272.463718zM287.894919 104.383628l112.049982 0L399.944901 216.42747 287.894919 216.42747 287.894919 104.383628zM455.975009 440.537667l112.049982 0L568.024991 552.58765 455.975009 552.58765 455.975009 440.537667zM624.043842 440.537667l112.049982 0L736.093824 552.58765 624.043842 552.58765 624.043842 440.537667zM848.142783 776.681474l-56.018851 0L792.123932 832.711582 680.07395 832.711582l0-56.030108L568.024991 776.681474 568.024991 832.711582 455.975009 832.711582l0-56.030108L343.925027 776.681474 343.925027 832.711582 231.876068 832.711582l0-56.030108-56.030108 0c-30.942733 0-56.018851-25.077142-56.018851-56.013735l0-728.33307c0-30.936593 25.077142-56.030108 56.018851-56.030108l672.297846 0c30.942733 0 56.030108 25.093515 56.030108 56.030108L904.173914 720.667739C904.172891 751.604332 879.085516 776.681474 848.142783 776.681474zM848.15404-7.676587 175.856194-7.676587l0 728.327954 56.018851 0 0-56.018851 112.049982 0 0 56.018851 112.049982 0 0-56.018851 112.049982 0 0 56.018851 112.049982 0 0-56.018851 112.049982 0 0 56.018851 56.030108 0L848.155063-7.676587zM624.043842 272.463718l112.049982 0L736.093824 384.50756 624.043842 384.50756 624.043842 272.463718zM624.043842 104.383628l112.049982 0L736.093824 216.42747 624.043842 216.42747 624.043842 104.383628z"  horiz-adv-x="1024" />

    
    <glyph glyph-name="mj22xiaoxiweidu" unicode="&#58924;" d="M502.496555 286.676417 379.452171 399.443737 102.367459 64.211696l819.315224 0L645.800355 402.783809 502.496555 286.676417 502.496555 286.676417zM940.731528 703.788304 83.317591 703.788304l419.178965-361.493148L940.731528 703.788304 940.731528 703.788304zM683.509189 434.983161l276.272207-342.962096L959.781396 657.447882 683.509189 434.983161 683.509189 434.983161zM64.268746 648.175705l0-556.153616 266.751367 333.689918L64.268746 648.175705 64.268746 648.175705z"  horiz-adv-x="1024" />

    
    <glyph glyph-name="mj20xiayi" unicode="&#58926;" d="M511.673565-63.424262 959.482591 384.384763 660.94324 384.384763 660.94324 832.194812 362.402867 832.194812 362.402867 384.384763 63.863517 384.384763Z"  horiz-adv-x="1024" />

    
    <glyph glyph-name="mj19shangyi" unicode="&#58927;" d="M511.673565 832.194812 63.863517 384.384763 362.402867 384.384763 362.402867-63.424262 660.94324-63.424262 660.94324 384.384763 959.482591 384.384763Z"  horiz-adv-x="1024" />

    
    <glyph glyph-name="mj18zhidi" unicode="&#58928;" d="M63.863517-63.424262 959.482591-63.424262 959.482591 11.210575 586.308403 11.210575 959.482591 384.384763 660.94324 384.384763 660.94324 832.194812 362.402867 832.194812 362.402867 384.384763 63.863517 384.384763 437.037704 11.210575 63.863517 11.210575Z"  horiz-adv-x="1024" />

    
    <glyph glyph-name="mj17zhiding" unicode="&#58929;" d="M959.482591 832.194812 63.863517 832.194812 63.863517 757.559974 437.038728 757.559974 63.863517 384.384763 362.402867 384.384763 362.402867-63.424262 660.94324-63.424262 660.94324 384.384763 959.482591 384.384763 586.308403 757.559974 959.482591 757.559974Z"  horiz-adv-x="1024" />

    
    <glyph glyph-name="mj15tishi04" unicode="&#58931;" d="M512.73678 832.379007c-247.257383 0-447.696462-200.433962-447.696462-447.691345 0-247.251244 200.439078-447.701578 447.696462-447.701578s447.696462 200.450335 447.696462 447.701578C960.433242 631.945045 759.993141 832.379007 512.73678 832.379007zM567.948243 105.67811 456.780351 105.67811 456.780351 217.602226l111.168915 0L567.949266 105.67811zM631.874181 400.133446c-53.818743-35.609009-77.82039-69.325925-72.057129-101.156888l0-25.288966L444.530352 273.687592l0 33.716916c-1.936095 56.196906 23.056112 102.07991 74.93876 137.683802 48.004317 33.716916 71.060429 67.433832 69.169359 101.151771-5.764284 37.449937-28.820396 58.043974-69.169359 61.815881-51.882648 0-84.575234-33.716916-97.994871-101.151771l-132.579551 25.288966c24.948205 129.249713 108.532879 191.988616 250.748904 188.256618 119.114888-7.510044 184.456059-59.974953 195.984626-157.348678C739.455385 499.393123 704.870706 445.08831 631.874181 400.133446z"  horiz-adv-x="1024" />

    
    <glyph glyph-name="mj26sousuo" unicode="&#58909;" d="M943.608042 32.296823 775.932158 199.972707c-1.967818 1.967818-4.048199 3.751441-6.214539 5.368264 49.045019 65.451688 78.099752 146.748249 78.099752 234.830353 0 216.489636-175.49906 391.988696-391.988696 391.988696S63.83998 656.661983 63.83998 440.172347s175.49906-391.988696 391.988696-391.988696c88.082104 0 169.377642 29.05371 234.82933 78.098729 1.6158-2.165316 3.3984-4.245697 5.365194-6.213515l167.681-167.681c22.063505-22.063505 57.840336-22.063505 79.903841 0C965.676663-25.543513 965.676663 10.233318 943.608042 32.296823zM455.828676 154.765085c-157.623947 0-285.407262 127.782292-285.407262 285.407262s127.782292 285.407262 285.407262 285.407262 285.407262-127.782292 285.407262-285.407262S613.452623 154.765085 455.828676 154.765085z"  horiz-adv-x="1024" />

    
    <glyph glyph-name="mj25" unicode="&#58938;" d="M511.919159 832.16002c-247.51321 0-448.16002-200.646809-448.16002-448.16002S264.405949-64.16002 511.919159-64.16002s448.16002 200.646809 448.16002 448.16002S759.431346 832.16002 511.919159 832.16002zM735.998657 327.980125 567.939033 327.980125l0-168.059624c0-30.939663-25.080212-56.019875-56.019875-56.019875s-56.019875 25.080212-56.019875 56.019875L455.899284 327.980125 287.838637 327.980125c-30.939663 0-56.019875 25.080212-56.019875 56.019875 0 30.934546 25.080212 56.019875 56.019875 56.019875l168.059624 0L455.898261 608.080521c0 30.934546 25.080212 56.019875 56.019875 56.019875s56.019875-25.085328 56.019875-56.019875l0-168.059624 168.059624 0c30.939663 0 56.019875-25.085328 56.019875-56.019875C792.018531 353.060337 766.93832 327.980125 735.998657 327.980125z"  horiz-adv-x="1024" />

    
    <glyph glyph-name="mj26" unicode="&#58939;" d="M511.919159 832.16002c-247.51321 0-448.16002-200.646809-448.16002-448.16002S264.405949-64.16002 511.919159-64.16002s448.16002 200.646809 448.16002 448.16002S759.431346 832.16002 511.919159 832.16002zM735.998657 327.980125 287.838637 327.980125c-30.939663 0-56.019875 25.080212-56.019875 56.019875 0 30.934546 25.080212 56.019875 56.019875 56.019875l448.16002 0c30.939663 0 56.019875-25.085328 56.019875-56.019875C792.018531 353.060337 766.93832 327.980125 735.998657 327.980125z"  horiz-adv-x="1024" />

    
    <glyph glyph-name="mj26danchuicon" unicode="&#58944;" d="M511.99693 831.783443c-247.511163 0-448.15695-200.651926-448.15695-448.168206 0-247.506047 200.645786-448.151833 448.15695-448.151833 247.517303 0 448.163089 200.645786 448.163089 448.151833C960.16002 631.131517 759.514233 831.783443 511.99693 831.783443zM511.99693-5.69342c-215.013005 0-389.31275 174.300768-389.31275 389.308657 0 215.018122 174.299745 389.32503 389.31275 389.32503 215.019145 0 389.31889-174.306908 389.31889-389.32503C901.31582 168.607348 727.016075-5.69342 511.99693-5.69342zM713.832821 502.517277 447.602318 299.78804 341.051583 406.494317c-12.154831 12.215206-31.870872 12.215206-44.034912 0-12.160971-12.189623-12.160971-32.011064 0-44.200688l124.771725-125.013225c1.046842-1.50119 1.687432-3.223415 3.027963-4.568039 6.277984-6.312776 14.558577-9.206686 22.782889-9.005095 8.227382-0.201591 16.507976 2.692319 22.785959 8.985652 1.347694 1.364067 1.988284 3.086291 3.031033 4.587482L757.868757 458.339102c12.157901 12.180414 12.157901 31.982412 0 44.178175C745.706763 514.707924 725.990722 514.707924 713.832821 502.517277z"  horiz-adv-x="1024" />

    
    <glyph glyph-name="mj27danchuicon" unicode="&#58945;" d="M512.00307 608.079498c-17.679661 0-32.012088-14.334473-32.012088-32.011064l0-256.088516c0-17.682731 14.331403-32.017204 32.012088-32.017204 17.679661 0 32.012088 14.334473 32.012088 32.017204L544.015158 576.068434C544.015158 593.745025 529.682731 608.079498 512.00307 608.079498zM511.99693 832.16002c-247.511163 0-448.15695-200.651926-448.15695-448.168206 0-247.506047 200.645786-448.151833 448.15695-448.151833 247.517303 0 448.163089 200.645786 448.163089 448.151833C960.16002 631.508094 759.514233 832.16002 511.99693 832.16002zM511.99693-5.316843c-215.013005 0-389.31275 174.300768-389.31275 389.308657 0 215.018122 174.299745 389.32503 389.31275 389.32503 215.019145 0 389.31889-174.306908 389.31889-389.32503C901.31582 168.983925 727.016075-5.316843 511.99693-5.316843zM479.990982 159.917432l64.023152 0 0 64.028269-64.023152 0L479.990982 159.917432z"  horiz-adv-x="1024" />

    
    <glyph glyph-name="mj162zuojiantou" unicode="&#58949;" d="M752.036935 881.639944l0-160.024623-320.049247-320.049247 320.049247-320.049247 0-160.024623-480.07387 480.07387L752.036935 881.639944"  horiz-adv-x="1024" />

    
    <glyph glyph-name="shangxiang_jinrudianpu" unicode="&#58976;" d="M766.936273 575.834096V831.373097h-63.815421v-191.653995L511.673565 831.373097 64.964594 384.179079h127.630842V-63.01494h638.156258V384.179079h127.630843l-191.446264 191.655017zM703.120852 64.755072H320.227302V384.179079h382.89355V64.755072z"  horiz-adv-x="1024" />

    
    <glyph glyph-name="shangxiang_dianpuyishoucang" unicode="&#58977;" d="M400.322501 551.499875L512 830.713065 623.677499 551.500898l335.032496-55.825446-223.354998-223.349881 55.83875-335.038636L512 104.797044 232.806253-62.712041l55.83875 335.038636L65.290005 495.674429l335.032496 55.825446"  horiz-adv-x="1024" />

    
    <glyph glyph-name="shangxiang_dianpuweishoucang" unicode="&#58978;" d="M958.708971 495.673405L623.677499 551.500898 512 830.713065 400.322501 551.500898 65.290005 495.673405l223.354998-223.34681-55.83875-335.03966 279.193747 167.508062L791.193747-62.713065l-55.83875 335.03966 223.353974 223.34681zM512 188.556703L316.564889 71.302185l39.086204 234.525408-156.349931 156.344814 234.525408 39.078017 78.172407 195.447391 78.172407-195.447391 234.525408-39.078017-156.347885-156.344814 39.086204-234.525408-195.435111 117.254518z"  horiz-adv-x="1024" />

    
    <glyph glyph-name="shangxiang_shangpinshuliang-" unicode="&#58979;" d="M65.290005 447.815421H958.708971v-127.630842H65.290005z"  horiz-adv-x="1024" />

    
    <glyph glyph-name="shangxiang_shouqi" unicode="&#58980;" d="M545.83255 543.533436L226.596831 224.297718h127.694288l191.541431 191.541431 191.54143-191.541431h127.694288L545.83255 543.533436z"  horiz-adv-x="1024" />

    
    <glyph glyph-name="shangxiang_shangpinshuliang" unicode="&#58981;" d="M958.708971 447.815421H575.815421V830.709995H448.184579v-382.894574H65.290005v-127.630842h382.894574v-382.89355h127.630842V320.184579H958.708971z"  horiz-adv-x="1024" />

    
    <glyph glyph-name="shangxiang_fenxiang" unicode="&#58982;" d="M772.883729 521.279596c68.054979 0 123.248022 55.200206 123.248022 123.241882 0 68.023256-55.194066 123.216299-123.248022 123.2163s-123.241882-55.194066-123.241882-123.2163c0-5.313006 0.938372-10.275018 1.545192-15.416107L338.889337 472.13327c-22.261003 21.890566-52.664454 35.44835-86.337367 35.44835-68.003813 0-123.196857-55.180763-123.196857-123.20402 0-68.048839 55.194066-123.280768 123.196857-123.280768 34.375925 0 65.430198 14.163581 87.793532 36.885072L651.327232 140.582061c-0.747014-5.453199-1.686409-10.785647-1.686408-16.348339 0-68.092841 55.186903-123.286907 123.241882-123.286908s123.248022 55.194066 123.248021 123.286908c0 67.965951-55.194066 123.255185-123.248021 123.255185-34.745339 0-66.037019-14.579043-88.400353-37.766139L374.018416 366.89339c0.798179 5.754051 1.775436 11.455913 1.775436 17.48421 0 6.647397-0.977257 13.154601-1.966795 19.59222L683.838693 559.690418c22.446221-23.538089 53.967122-38.410821 89.045036-38.410822z"  horiz-adv-x="1024" />

    
    <glyph glyph-name="shangxiang_zhankai" unicode="&#58983;" d="M545.83255 224.297718l319.235718 319.235718H737.37398L545.83255 351.992005 354.291119 543.533436H226.596831l319.235719-319.235718z"  horiz-adv-x="1024" />

    
    <glyph glyph-name="shangxiang_shouce" unicode="&#58984;" d="M900.104225 574.426027L646.787846 823.016779c-5.666046 5.606695-15.127536 9.362228-24.589025 9.362228H208.16811c-26.464745 0-51.02921-11.19804-66.152652-26.14138-17.022699-16.874319-28.365025-39.269375-28.365025-65.49569v-712.203718c0-26.14138 11.342326-50.457182 28.365025-63.574944 17.003256-16.779152 39.686884-27.977191 66.152652-27.977192h606.866624c26.480094 0 49.173956 9.362228 66.187445 26.141381 18.883069 16.789385 28.350698 41.094954 28.350699 65.410755V550.120458c-0.002047 7.427156-1.907443 16.789385-9.468653 24.305569z m-238.80999 157.988244l148.32721-146.656151v-1.780553H696.191022c-8.734942 0-17.46579 3.466961-24.444738 10.332323l-1.755993 1.771343c-5.222955 6.865361-8.696056 15.501042-8.696056 24.136723V732.414271z m197.82453-719.770044c0-7.780197-3.979638-13.640672-8.014534-17.5804-3.979638-3.929496-11.983939-7.870248-18.027585-7.870248H190.125175c-8.014534 0-14.008039 3.939729-18.018375 7.870248-6.013971 3.939729-8.009418 11.719926-8.009418 17.5804V758.267079c0 5.860475 1.994424 11.80486 8.009418 15.659655 4.004197 5.944386 10.003841 7.865131 18.018375 7.865131h414.618089v-164.41563c0-21.509896 10.019191-41.094954 24.032346-56.755632v-1.919722c16.017812-13.729699 36.07052-23.524786 60.102866-23.524786h170.241313v-522.531868h-0.001024zM710.875466 245.923248c-0.477884 3.776-3.427052 8.42181-6.631024 11.601222l0.010233-0.010233c-8.969279 9.009188-28.882817 13.759375-59.18803 14.172791-20.50501 0.23843-45.199435-1.596358-71.166853-5.302773-11.625782 6.830569-23.61893 14.261818-33.021068 23.196305-25.305339 24.056905-46.428426 57.426921-59.591213 94.133938 0.855484 3.427052 1.587148 6.446829 2.26867 9.521864 0 0 14.247492 82.399685 10.476609 110.246916-0.527003 3.820002-0.836041 4.920056-1.850138 7.899924l-1.2382 3.233648c-3.880377 9.103332-11.476379 18.7439-23.400966 18.222013l-7.178493 0.233314c-13.282514 0-24.11728-6.919597-26.962072-17.251919-8.645914-32.429597 0.26913-80.941474 16.436344-143.770428l-4.134157-10.238178c-11.57564-28.703739-26.071795-57.611116-38.871309-83.121116l-1.656733-3.308349c-13.461593-26.812669-25.678846-49.572022-36.742832-68.858274l-11.426237-6.149047c-0.836041-0.462534-20.421098-11.008728-25.016767-13.824867-38.980803-23.698748-64.819285-50.587142-69.106938-71.923076-1.357927-6.810103-0.347924-15.520485 6.585999-19.555382l11.063987-5.660929c4.795213-2.442632 9.849322-3.691065 15.038508-3.691066 27.768437 0 59.993372 35.204803 104.406908 114.077152 51.263547 16.98279 109.624746 31.091112 160.789033 38.886659 38.975686-22.340821 86.930885-37.861306 117.192096-37.861306 5.377474 0 10.008958 0.521886 13.769608 1.537006 5.805216 1.557472 10.695596 4.930289 13.675464 9.496281 5.872754 9.001001 7.05672 21.383006 5.469571 34.06791zM305.98288 123.553223c3.169179 8.804527 15.694447 26.235524 34.230615 41.682331 1.164522 0.970094 4.03899 3.701299 6.665817 6.243191-19.381419-31.444153-32.354895-43.99091-40.896432-47.925522z m161.569815 372.104833c6.681166 0 10.476609-17.132192 10.799974-33.19503 0.323365-16.067954-3.377934-27.349905-7.954159-35.687804-3.790326 12.361539-5.631254 31.831986-5.631254 44.557822 0-0.001023-0.278339 24.325012 2.785439 24.325012z m-28.907377-244.859777c3.586688 6.54609 7.327896 13.441127 11.142782 20.763906 9.307993 17.908882 15.182794 31.927153 19.565614 43.443441 8.710382-16.118096 19.550265-29.822213 32.299637-40.806381a121.166617 121.166617 0 0 1 5.043876-4.108574c-25.921369-5.223978-48.327682-11.571546-68.051909-19.292392z m231.752248-15.092743h0.005117c-1.790786-1.13894-6.92983-1.806135-10.242272-1.806136-10.665921 0-23.868617 4.954849-42.36897 13.048178 7.108908 0.521886 13.630439 0.801249 19.475564 0.801248 10.700713 0 13.863752 0.050142 24.331151-2.661619 10.460236-2.710738 10.595312-8.227382 8.79941-9.381671z"  horiz-adv-x="1024" />

    
    <glyph glyph-name="mj16shangla" unicode="&#58985;" d="M30.902 623.525h160.025l320.049-320.049 320.049 320.049h160.025l-480.074-480.074-480.074 480.074z"  horiz-adv-x="1024" />

    
    <glyph glyph-name="maijia_shanchu" unicode="&#58989;" d="M399.302265 76.15982V467.495646c0 15.435551-12.517081 27.952632-27.952632 27.952632s-27.952632-12.517081-27.952632-27.952632v-391.335826c0-15.440667 12.517081-27.952632 27.952632-27.952632s27.952632 12.511965 27.952632 27.952632z m475.193723 475.193722c-15.435551 0-27.952632-12.511965-27.952632-27.952632v-531.098987H175.681208V523.40091c0 15.440667-12.517081 27.952632-27.952632 27.952632s-27.952632-12.511965-27.952632-27.952632v-559.051619c0-15.440667 12.517081-27.952632 27.952632-27.952632h726.766388c15.440667 0 27.952632 12.511965 27.952633 27.952632V523.40091c0.001023 15.440667-12.510942 27.952632-27.951609 27.952632zM930.401252 663.164071H734.732827V774.973576c0 30.876218-25.029046 55.905264-55.905264 55.905264H343.397001c-30.876218 0-55.905264-25.029046-55.905264-55.905264V663.164071H91.824335c-15.440667 0-27.952632-12.511965-27.952632-27.952632 0-15.440667 12.511965-27.952632 27.952632-27.952632H930.401252c15.440667 0 27.952632 12.511965 27.952632 27.952632 0 15.440667-12.511965 27.952632-27.952632 27.952632z m-251.573689 0H343.397001V774.973576h335.430562V663.164071z m0-587.004251V467.495646c0 15.435551-12.511965 27.952632-27.952632 27.952632-15.435551 0-27.952632-12.517081-27.952632-27.952632v-391.335826c0-15.440667 12.517081-27.952632 27.952632-27.952632 15.441691 0 27.952632 12.511965 27.952632 27.952632z"  horiz-adv-x="1024" />

    
    <glyph glyph-name="maijia_caigouguanli" unicode="&#58986;" d="M232.339626 329.44243H344.888981v55.95029H232.339626v-55.95029z m661.404751 378.415562L749.302661 823.433264c-6.314823 6.046716-14.761192 9.368368-23.514553 9.368368H154.021909c-18.508539 0-33.515325-14.626115-33.515324-32.524764v-742.502791c0-8.764618 3.624551-17.417695 10.258644-23.403013l101.233636-83.480296c17.86488-12.635785 36.999682-5.16872 46.458101 0l103.359043 84.364433 107.179044-87.871303c19.576871-11.527544 29.348422-9.127891 46.452985 0l107.240443 87.871303 107.240443-87.871303c9.531074-6.253424 14.877849-9.127891 23.26282-9.127892 8.311293 0 14.877849 3.417843 23.25668 9.127892l97.049337 79.369675c6.499018 6.230911 10.252505 14.637372 10.252504 23.340591V684.825416c0.001023 8.585539-3.629667 16.991999-10.005888 23.032576z m-46.317908-656.476509l-62.818721-57.432037-113.52252 82.781379c-16.186657 11.628852-32.721239 11.628852-48.052412 0l-110.769826-84.532256-110.775966 84.532256c-8.708336 5.845125-15.308661 9.195429-23.961738 9.195429-8.725732 0-15.521508-3.434216-24.034393-9.195429l-102.726639-80.857563-74.055646 63.086827V777.025305h535.331381v-86.730317c0-10.996448 12.32777-25.108864 23.821545-25.108864l111.564935 5.106298v-618.910939zM503.632425 299.15973c-30.975479 0-56.100716-22.659069-56.100715-50.547233 0-27.894304 25.125237-50.55235 56.100715-50.55235 30.964222 0 56.095599 22.659069 56.095599 50.55235 0 27.889187-25.130354 50.547233-56.095599 50.547233zM344.804047 497.152083h-112.481817v-56.515155h112.481817v56.515155zM232.317113 217.670787h167.228699v56.515155h-167.228699v-56.515155z m439.607226 81.488943c-30.947849 0-56.100716-22.659069-56.100715-50.547233 0-27.894304 25.14775-50.55235 56.100715-50.55235s56.100716 22.659069 56.100716 50.55235c0 27.889187-25.146727 50.547233-56.100716 50.547233zM451.306686 581.952444c-5.733585 25.164123-21.455661 28.028357-28.844955 28.028357H316.468698c-15.409968 0-27.910677-12.568247-27.910676-28.028357 0-15.471366 12.500709-28.033473 27.910676-28.033473h84.621283l55.80498-201.913663c5.246491-16.646122 17.658172-22.339798 27.90556-22.339797h223.224014c11.556197 0 21.802562 5.91164 27.910677 21.897729l47.850821 146.292878c4.245697 13.563924 7.948019 21.024849 7.948019 28.028356 0 18.614963-15.907295 28.033473-27.89942 28.033474H458.84129l-7.534604 28.034496z m60.822251-84.565001h223.732597L679.92864 385.520633H512.128937V497.387443z"  horiz-adv-x="1024" />

    
    <glyph glyph-name="maijia_guanzhuzhongxin" unicode="&#58987;" d="M957.310112 296.193165L677.842119 16.725172l-167.853939 160.219052 56.066947 63.354933L677.842119 128.512165l223.573985 223.573985 55.894008-55.892985zM447.990151 94.031862c-115.006314 99.295494-329.816704 312.138066-329.085041 425.736311 0 127.258359 96.830349 223.065402 184.577833 223.065402 133.99376 0 150.784168-167.172417 150.784168-167.172417h111.786992s12.883425 167.681 167.681001 167.681c87.490633 0 167.681-88.798419 167.681-223.573985 0.140193-20.261463 12.011568-87.719854 0-111.786992h55.894008c9.607822 23.810289-0.011256 73.90215-0.150426 95.589078-2.157129 338.116741-336.613504 406.961712-446.997544 127.984907C394.427234 922.145473 65.24191 838.819696 63.057151 501.541043c-1.252527-195.034998 434.404738-492.042459 447.562409-540.40698 1.738597 7.237845 29.031197 19.405979 45.760207 35.615149v55.144948c-11.564383-10.429537-21.614274-19.696598-29.723976-27.706016-17.791202 17.141402-43.027979 39.09132-78.66564 69.843718z"  horiz-adv-x="1024" />

    
    <glyph glyph-name="maijia_shouhouguanli" unicode="&#58988;" d="M514.137687 556.244946c-154.47728 0-280.161794-125.316124-280.161795-279.340079 0-154.013723 125.684514-279.334963 280.161795-279.334963s280.145421 125.32124 280.145421 279.334963c-0.001023 154.023956-125.668141 279.340079-280.145421 279.340079z m0-503.415484c-123.030058 0-223.107357 100.536764-223.107358 224.085638 0 123.555014 100.078323 224.085638 223.107358 224.085637 123.018801 0 223.102241-100.530624 223.10224-224.085637 0-123.548874-100.084463-224.085638-223.10224-224.085638z m402.430512 340.614631h-2.269693C893.068995 610.448452 721.727629 780.135132 514.137687 780.135132c-207.602222 0-378.937448-169.68668-400.179239-386.691039h-2.280949c-24.650423 0-44.717458-20.396539-44.717458-45.483914v-136.505977c0-25.069979 20.067035-45.472658 44.717458-45.472657h44.723597c24.645306 0 44.712341 20.402679 44.712341 45.472657V347.960179c0 24.14798-18.664082 43.779086-42.056861 45.203528 20.821211 191.984522 171.990143 341.481372 355.069854 341.481372 183.085852 0 334.25376-149.496849 355.074971-341.481372-23.39278-1.425466-42.063001-21.050432-42.063001-45.203528v-136.505977c0-25.069979 20.073174-45.472658 44.734854-45.472657h44.694945c24.667819 0 44.74611 20.402679 44.74611 45.472657V347.960179c0 25.087375-20.078291 45.483914-44.74611 45.483914zM111.677499 347.960179z m44.723597-136.511093h-44.712341l-0.011256 136.505976h44.723597v-136.505976z m760.167103 136.511093v-136.505977h-44.694945V347.960179h44.694945z"  horiz-adv-x="1024" />

    
    <glyph glyph-name="hnc_shangchengsousuo_wu" unicode="&#59015;" d="M511.599 830.36c-246.863 0-446.985-200.122-446.985-446.985S264.736-63.61 511.599-63.61s446.985 200.122 446.985 446.985S758.461 830.36 511.599 830.36zM288.106 584.519h424.635c12.344 0 22.349-10.006 22.349-22.349s-10.006-22.349-22.349-22.349H288.106c-12.341 0-22.349 10.006-22.349 22.349s10.008 22.349 22.349 22.349z m89.397-402.287h-89.397c-12.341 0-22.349 10.006-22.349 22.349 0 12.344 10.008 22.349 22.349 22.349h89.397c12.344 0 22.349-10.006 22.349-22.349s-10.005-22.349-22.349-22.349z m0 89.397h-89.397c-12.341 0-22.349 10.006-22.349 22.349s10.008 22.349 22.349 22.349h89.397c12.344 0 22.349-10.006 22.349-22.349s-10.005-22.349-22.349-22.349z m0 89.397h-89.397c-12.341 0-22.349 10.006-22.349 22.349s10.008 22.349 22.349 22.349h89.397c12.344 0 22.349-10.006 22.349-22.349s-10.005-22.349-22.349-22.349z m22.349 89.397H288.106c-12.341 0-22.349 10.006-22.349 22.349 0 12.344 10.008 22.349 22.349 22.349h111.746c12.344 0 22.349-10.006 22.349-22.349 0.001-12.343-10.005-22.349-22.349-22.349zM752.546 185.39c-7.938-7.938-20.809-7.938-28.746 0l-47.809 47.81c-24.131-17.88-53.995-28.459-86.333-28.459-80.178 0-145.178 65.007-145.178 145.199s65.001 145.199 145.178 145.199c80.18 0 145.178-65.007 145.178-145.199 0-33.187-11.14-63.766-29.873-88.22l47.583-47.583c7.938-7.94 7.938-20.808 0-28.747zM589.964 450.209c-55.567 0-100.612-45.027-100.612-100.569s45.045-100.569 100.612-100.569 100.614 45.027 100.614 100.569-45.047 100.569-100.614 100.569z"  horiz-adv-x="1024" />

    
    <glyph glyph-name="hnc_shangchengdingdan_buzhou" unicode="&#59016;" d="M511.773 831.084c-247.147 0-447.5-200.353-447.5-447.5s200.353-447.5 447.5-447.5 447.5 200.353 447.5 447.5-200.353 447.5-447.5 447.5z m0-860.577c-228.135 0-413.077 184.941-413.077 413.077S283.637 796.661 511.773 796.661s413.077-184.942 413.077-413.077-184.942-413.077-413.077-413.077z m-0.007 757.314c-190.115 0-344.234-154.116-344.234-344.231 0-190.108 154.119-344.231 344.234-344.231 190.112 0 344.231 154.122 344.231 344.231 0 190.116-154.119 344.231-344.231 344.231zM647.569 178.408H409.093v45.386h93.188v315.82l-95.605-27.661v48.34l147.974 42.969v-379.468h92.92v-45.386z"  horiz-adv-x="1024" />

    
    <glyph glyph-name="hnc_shangchengdingdan_buzhou1" unicode="&#59017;" d="M511.773 831.084c-247.147 0-447.5-200.353-447.5-447.5s200.353-447.5 447.5-447.5 447.5 200.353 447.5 447.5-200.353 447.5-447.5 447.5z m0-860.577c-228.135 0-413.077 184.941-413.077 413.077S283.637 796.661 511.773 796.661s413.077-184.942 413.077-413.077-184.942-413.077-413.077-413.077z m-0.007 757.314c-190.115 0-344.234-154.116-344.234-344.231 0-190.108 154.119-344.231 344.234-344.231 190.112 0 344.231 154.122 344.231 344.231 0 190.116-154.119 344.231-344.231 344.231zM396.739 247.963c28.467-22.021 60.601-33.032 96.411-33.032 28.643 0 51.336 7.024 68.078 21.082 16.738 14.053 25.11 32.897 25.11 56.53 0 52.637-37.69 78.955-113.062 78.955h-34.644v43.506h33.032c66.777 0 100.171 24.707 100.171 74.121 0 45.654-25.513 68.481-76.538 68.481-29.185 0-56.665-9.849-82.446-29.541v49.683c27.212 15.752 58.99 23.633 95.337 23.633 35.449 0 63.916-9.265 85.4-27.796 21.484-18.529 32.227-42.565 32.227-72.106 0-54.429-27.754-89.429-83.252-105.005v-1.074c30.078-3.223 53.845-13.83 71.301-31.824 17.456-17.992 26.185-40.417 26.185-67.272 0-37.422-13.474-67.588-40.418-90.503-26.947-22.92-62.8-34.375-107.556-34.375-39.39 0-71.167 7.339-95.337 22.021v54.516z"  horiz-adv-x="1024" />

    
    <glyph glyph-name="hnc_shangchengdingdan_buzhou2" unicode="&#59018;" d="M511.773 831.084c-247.147 0-447.5-200.353-447.5-447.5s200.353-447.5 447.5-447.5 447.5 200.353 447.5 447.5-200.353 447.5-447.5 447.5z m0-860.577c-228.135 0-413.077 184.941-413.077 413.077S283.637 796.661 511.773 796.661s413.077-184.942 413.077-413.077-184.942-413.077-413.077-413.077z m-0.007 757.314c-190.115 0-344.234-154.116-344.234-344.231 0-190.108 154.119-344.231 344.234-344.231 190.112 0 344.231 154.122 344.231 344.231 0 190.116-154.119 344.231-344.231 344.231zM639.781 178.408H386.803v45.654l120.85 120.581c33.301 33.301 55.591 59.661 66.87 79.089 11.279 19.425 16.919 39.52 16.919 60.291 0 23.633-6.626 41.76-19.873 54.383-13.252 12.621-32.407 18.933-57.471 18.933-37.061 0-72.422-15.757-106.079-47.266v53.442c32.764 25.244 70.898 37.866 114.404 37.866 37.417 0 66.958-10.117 88.623-30.347 21.66-20.234 32.495-47.446 32.495-81.641 0-25.781-6.94-51.071-20.813-75.867-13.877-24.799-40.148-56.354-78.82-94.665l-94.8-92.651v-1.074h190.674v-46.728z"  horiz-adv-x="1024" />

    
    <glyph glyph-name="mj16shangla-copy" unicode="&#59019;" d="M993.098 144.475h-160.025l-320.049 320.049-320.049-320.049h-160.025l480.074 480.074 480.074-480.074z"  horiz-adv-x="1024" />

    
    <glyph glyph-name="hnc_shangchenggouwuchengkong" unicode="&#59034;" d="M447.896 360.209h-2.318c-4.392 0-7.961-3.329-7.961-7.428v-183.27c0-4.098 3.569-7.426 7.961-7.426h2.318c4.393 0 7.952 3.328 7.952 7.426v183.27c0 4.099-3.559 7.428-7.952 7.428z m-68.293 0h-2.317c-4.393 0-7.952-3.329-7.952-7.428v-183.27c0-4.098 3.559-7.426 7.952-7.426h2.317c4.392 0 7.96 3.328 7.96 7.426v183.27c0 4.099-3.568 7.428-7.96 7.428z m136.576 0h-2.318c-4.393 0-7.952-3.329-7.952-7.428v-183.27c0-4.098 3.559-7.426 7.952-7.426h2.318c4.391 0 7.96 3.328 7.96 7.426v183.27c0 4.099-3.568 7.428-7.96 7.428zM511.04 831.61c-247.148 0-447.5-200.353-447.5-447.5s200.353-447.5 447.5-447.5 447.5 200.354 447.5 447.5c-0.001 247.147-200.353 447.5-447.5 447.5z m228.511-438.288c0-5.301-3.789-9.596-8.463-9.596h-8.766v-1.615l-23.438-205.636c0-22.044-3.108-39.918-6.944-39.918H330.835c-3.837 0-6.945 17.874-6.945 39.918l-22.831 197.754c0 3.204-0.647 6.39-1.578 9.497h-8.492c-4.673 0-8.463 4.296-8.463 9.596v48.342c0 5.299 3.789 9.596 8.463 9.596h87.063l97.901 165.111c1.914 3.227 6.697 3.894 10.685 1.488l17.459-10.536c3.988-2.406 5.668-6.975 3.753-10.201L421.363 451.26h173.991l-80.319 149.146c-1.778 3.304 0.222 7.87 4.467 10.199l18.597 10.193c4.249 2.328 9.137 1.537 10.914-1.77l90.348-167.768h91.726c4.674 0 8.463-4.297 8.463-9.596v-48.342z m-155.08-33.113h-2.317c-4.393 0-7.952-3.329-7.952-7.428v-183.27c0-4.098 3.559-7.426 7.952-7.426h2.317c4.392 0 7.952 3.328 7.952 7.426v183.27c0 4.099-3.56 7.428-7.952 7.428z m68.284 0h-2.309c-4.402 0-7.96-3.329-7.96-7.428v-183.27c0-4.098 3.558-7.426 7.96-7.426h2.309c4.402 0 7.961 3.328 7.961 7.426v183.27c-0.001 4.099-3.56 7.428-7.961 7.428z"  horiz-adv-x="1024" />

    
    <glyph glyph-name="shangcheng_kefurexian" unicode="&#59073;" d="M267.5 820.2c38.4 23.6 133.2 6.4 129.9-10.2-3.2-16.5 36.9-218.2 33.8-234.8-3.2-16.6-72.4-59-92.6-71.5-20-12.3 71.5-184.1 73.2-187.3 2.1-3 113.8-162.3 133.9-150 20.2 12.4 89.4 54.9 105.6 50.3 16.2-4.6 177.8-131.7 194-136.3 16.2-4.6-11.3-97-49.7-120.6-32.8-20.2-192.9-83.5-390.2 145.1-22.5 21.3-55.7 65.7-103.5 143.5 0 0.1-0.1 0.1-0.1 0.2 0 0-0.1 0.1-0.1 0.2s-0.1 0.1-0.1 0.2-0.1 0.1-0.1 0.1c-47.7 77.8-72.3 127.5-81.1 157.2-114.6 279.6 14.3 393.8 47.1 413.9z"  horiz-adv-x="1024" />

    
    <glyph glyph-name="shangxiang_fankui" unicode="&#59074;" d="M511.8 831.8c-247.2 0-447.6-200.4-447.6-447.6 0-247.2 200.4-447.6 447.6-447.6S959.3 137 959.3 384.2c0 247.2-200.3 447.6-447.5 447.6z m-53-627c-10.3-1.2-20.4-1.8-30.5-1.8-11 0-21.9 0.7-32.5 2.1-42.9-46.7-87.7-59.2-112.8-59.2-16.1 0-24 5.2-18.2 9.8 36.6 29 44.4 57.4 42 79.6-47 28.1-79.5 72.7-85.4 125.7-11.2 100.4 77 193.2 196.9 207.3 10.4 1.2 20.6 1.8 30.7 1.8 106.8 0 196.4-66.3 206.6-158 11.2-100.4-76.9-193.2-196.8-207.3z m343.3 251.1c-5.9-53.1-38.4-97.6-85.4-125.7-2.3-22.2 5.5-50.6 42-79.6 13.1-10.4-43.3-23.4-104.8 25.1 29.9 42.3 43.3 92.1 37.9 140.9-6.1 54.9-35.2 104.6-82 140-44.1 33.4-101.2 51.8-160.8 51.8-9.9 0-20-0.6-29.9-1.6 44.5 42.1 112.8 65 186.2 56.4 119.9-14.2 208-107 196.8-207.3z"  horiz-adv-x="1024" />

    
    <glyph glyph-name="shangxiang_kefu" unicode="&#59075;" d="M512.1 832.1c-247.3 0-447.8-200.5-447.8-447.9 0-247.3 200.5-447.8 447.8-447.8s447.8 200.5 447.8 447.8c0 247.4-200.5 447.9-447.8 447.9z m-0.1-656.3c-95.6 0-173 75.8-173 169.4s77.4 169.4 173 169.4c95.5 0 173-75.8 173-169.4s-77.4-169.4-173-169.4z m199.8 104.3V436.5c2.2 0 4.4-0.1 6.5-0.3-35.4 77-114.4 130.5-206.3 130.5s-170.8-53.6-206.3-130.5c2.1 0.2 4.3 0.3 6.5 0.3v-156.4c-44.1 0-79.9 35-79.9 78.2 0 29.3 16.5 54.9 40.9 68.3 34.4 96.8 128.1 166.3 238.8 166.3s204.4-69.5 238.8-166.3c24.4-13.4 40.9-38.9 40.9-68.2 0-43.3-35.7-78.3-79.9-78.3z"  horiz-adv-x="1024" />

    
    <glyph glyph-name="hnc_caigoushangdaohang_gouwuche" unicode="&#59099;" d="M736.186 160.417c-24.743 0-44.8-20.008-44.8-44.822 0-24.671 20.057-44.733 44.8-44.733s44.8 20.061 44.8 44.733c0 24.815-20.057 44.822-44.8 44.822z m-403.2 403.223l-44.8 134.382h-134.4v-44.773h89.6l134.4-358.422V205.24h358.4v44.796h-313.6v44.791h358.4l89.6 268.813h-537.6z m403.2-223.982h-313.6L353.57 518.84h441.467l-58.851-179.182z m-313.6-179.241c-24.743 0-44.8-20.008-44.8-44.822 0-24.671 20.057-44.733 44.8-44.733s44.8 20.061 44.8 44.733c0 24.815-20.057 44.822-44.8 44.822z"  horiz-adv-x="1024" />

    
    <glyph glyph-name="hnc_caigoushangdaohang_diqu" unicode="&#59100;" d="M512.139 697.826c-123.711 0-224-105.307-224-235.204 0-129.902 224-391.995 224-391.995S736.144 332.72 736.144 462.622c0 129.897-100.29 235.204-224.005 235.204z m0-313.609c-49.235 0-89.152 40.118-89.152 89.604 0 49.477 39.917 89.591 89.152 89.591 49.24 0 89.156-40.114 89.156-89.591 0.001-49.486-39.916-89.604-89.156-89.604z"  horiz-adv-x="1024" />

    
    <glyph glyph-name="hnc_caigoushangdaohang_saoma" unicode="&#59101;" d="M654.66 543.69h-89.596v-89.591h89.596V543.69z m-134.396-89.591H475.46v-44.809h44.804v44.809z m0 89.591H475.46v-44.809h44.804V543.69zM475.46 230.086h44.804v44.809H475.46v-44.809z m134.4 134.4h44.8V409.29h-44.8v-44.804zM385.864 409.29h-44.8v-44.804h44.8V409.29z m179.2-44.804V409.29h-44.8v-44.804h44.8zM430.66 543.69h-89.596v-89.591h89.596V543.69z m224 268.796H341.064c-49.486 0-89.604-40.101-89.604-89.596v-672.009c0-49.468 40.118-89.591 89.604-89.591H654.66c49.486 0 89.604 40.123 89.604 89.591V722.89c0 49.495-40.118 89.596-89.604 89.596z m-224-44.782h134.404v-44.813H430.66v44.813z m179.2-761.609H385.864v44.787H609.86v-44.787z m89.6 89.591h-403.2v582.4h403.2v-582.4z m-268.8 224.013h-89.596v-89.613h89.596v89.613z m0 44.787h44.8V409.29h-44.8v-44.804z m44.8-44.787h44.804v44.787H475.46v-44.787z m89.604-89.613h89.596v89.613h-89.596v-89.613z"  horiz-adv-x="1024" />

    
    <glyph glyph-name="hnc_caigoushangdaohang_shouye" unicode="&#59103;" d="M511.333 656.385l-313.602-313.6h89.605v-223.996h179.2V253.185h89.595v-134.396h179.2V342.785h89.605z"  horiz-adv-x="1024" />

    
    <glyph glyph-name="hnc_caigoushangdaohang_dianhua" unicode="&#59104;" d="M566.008 347.94c-29.867 5.6-71.867-15.867-71.867-15.867-27.23 3.733-76.858 76.619-65.333 110.133 0 0 90.533 38.324 45.733 183.867-14.58 47.367-72.95 142.818-135.834 137.597-94.7-7.863-152.146-68.874-160.966-105.697-34.533-144.168 11.501-287.503 87.733-411.766 76.284-124.238 196.016-224.014 311.832-240.8 70.835-10.267 199.635 85.867 160.435 186.667-10.653 27.393-44.817 72.777-74.667 99.867 0.001-0.001-61.019 49.24-97.066 55.999z m91.467-210c-8.4-27.324-41.024-59.704-80.168-47.691s-167.341 78.37-239.032 195.158c-60.224 98.158-99.043 219.792-78.784 335.513 0.859 4.907 13.451 49.02 75.985 59.286 26.236 6.712 54.85-81.41 61.959-105.195 5.025-16.811 8.889-39.131-4.092-53.472 0 0-31.733-14-42.933-48.533s4.625-94.264 40.133-152.133c35.534-57.917 85.867-78.4 110.133-74.667 24.267 3.733 47.6 21.467 47.6 21.467 47.685-2.8 117.599-102.409 109.199-129.733zM820.81 598.003c-41.607 77.166-112.649 134.449-200.095 161.319a19.721 19.721 0 0 1-5.866 0.904c-8.202 0-15.418-4.934-17.961-12.287-3.219-9.307 2.206-19.371 12.121-22.424C686.825 701.6 750.08 650.596 787.067 581.93c37.091-68.69 43.476-146.833 18.065-220.067-3.244-9.331 2.206-19.395 12.148-22.424 1.842-0.587 3.815-0.904 5.839-0.904 8.202 0 15.47 4.934 18.014 12.288 28.526 82.245 21.285 170.013-20.323 247.18zM585.286 657.093a20.684 20.684 0 0 1-5.892 0.879c-8.202 0-15.47-4.934-17.961-12.288-3.245-9.307 2.206-19.395 12.096-22.424 48.745-14.95 88.354-46.95 111.61-90.089 23.257-43.139 27.358-92.117 11.369-137.942-3.219-9.331 2.232-19.395 12.147-22.473 1.921-0.562 3.893-0.855 5.892-0.855 8.202 0 15.443 4.934 17.961 12.263 19.026 54.888 14.198 113.514-13.627 165.106-27.876 51.615-75.324 89.893-133.595 107.823zM538.045 521.056c40.855-12.58 63.177-54.034 49.836-92.458-3.219-9.307 2.233-19.371 12.148-22.449 1.894-0.562 3.867-0.879 5.84-0.879 8.228 0 15.47 4.959 18.014 12.287 19.83 57.063-13.445 118.669-74.079 137.331a19.724 19.724 0 0 1-5.891 0.904c-8.202 0-15.418-4.934-17.988-12.263-3.219-9.38 2.205-19.444 12.12-22.473z"  horiz-adv-x="1024" />

    
    <glyph glyph-name="shangxiang_shangpinduibi" unicode="&#59102;" d="M512.1 832.1c-247.3 0-447.8-200.5-447.8-447.8s200.5-447.8 447.8-447.8S959.9 137 959.9 384.3 759.4 832.1 512.1 832.1z m-159-531.4c0.6 0 0 44.8 0 71.7 33.7 0 61.1 26.7 61.1 59.7s-27.4 59.7-61.1 59.7H316.5V241c0-19.8-16.4-35.8-36.6-35.8-20.3 0-36.7 16-36.7 35.8V527.6c0 19.8 16.4 35.8 36.7 35.8h73.3c74.2 0 134.4-58.8 134.4-131.4-0.2-72.5-60.3-131.3-134.5-131.3zM770 216.3c-14.7-14.3-38.5-14.3-53.1 0l-107.3 87.2V241c0-19.8-16.4-35.8-36.7-35.8-20.2 0-36.6 16-36.6 35.8V527.6c0 19.8 16.4 35.8 36.6 35.8 20.3 0 36.7-16 36.7-35.8v-92.7l105.8 103.4c14.3 14 37.5 14 51.8 0 14.3-14 14.3-36.7 0-50.7L645.9 369.1 770 268.2c14.7-14.3 14.7-37.5 0-51.9z"  horiz-adv-x="1024" />

    
    <glyph glyph-name="hnc_tishi" unicode="&#59109;" d="M512.998 638.641C371.615 638.641 257 524.021 257 382.636c0-141.382 114.615-255.995 255.998-255.995C654.385 126.641 769 241.254 769 382.636c0 141.385-114.615 256.005-256.002 256.005z m31.997-415.995h-64.004v64.009h64.004v-64.009z m0 128.012h-64.004V510.645h64.004v-159.987z"  horiz-adv-x="1024" />

    
    <glyph glyph-name="hnc_wenhao" unicode="&#59110;" d="M513 638.791c-141.386 0-256-114.611-256-255.997 0-141.382 114.614-256.003 256-256.003s256 114.621 256 256.003c0 141.386-114.614 255.997-256 255.997z m31.571-415.539h-63.568v64h63.568v-64z m36.554 168.374c-30.774-20.362-44.499-39.642-41.203-57.843v-14.461h-65.923v19.28c-1.107 32.134 13.184 58.371 42.851 78.73 27.45 19.28 40.634 38.56 39.552 57.84-3.296 21.414-16.48 33.19-39.552 35.347-29.667 0-48.362-19.28-56.035-57.84l-75.811 14.461c14.266 73.907 62.061 109.782 143.382 107.648 68.112-4.294 105.475-34.294 112.067-89.974 2.189-36.43-17.587-67.482-59.328-93.188z"  horiz-adv-x="1024" />

    
    <glyph glyph-name="arrLeft-fill" unicode="&#59258;" d="M234.8888416290282 518.5219315546517l279.65492248535145-279.6549224853517 278.8075160980226 278.80751609802246z"  horiz-adv-x="1024" />

    
    <glyph glyph-name="jinhuoche" unicode="&#59370;" d="M152.5 641.7l-25.2 117.6c-3 15.3-17.9 25.3-33.2 22.3-15.3-3-25.3-17.9-22.3-33.2l116.9-546.7c2.1-10.7 10.1-18.8 19.9-21.7 2.9-1 6.1-1.6 9.4-1.6h59.3c-22.5-20.2-36.7-49.4-36.7-82 0-60.8 49.3-110.2 110.2-110.2 60.8 0 110.2 49.3 110.2 110.2 0 32.6-14.1 61.8-36.6 82l207.2-0.1c-22.4-20.2-36.5-49.4-36.5-81.9 0-60.8 49.3-110.2 110.2-110.2 60.8 0 110.2 49.3 110.2 110.2 0 32.5-14 61.6-36.4 81.8h63.2c13.5-0.5 25.8 8.9 28.6 22.6l80 407.1c3.1 15.3-6.8 30.2-22.1 33.3l-776.3 0.5z m53.4-250l-41.4 193.5 724.3-0.3-38-193.5-644.9 0.3z m144.9-350.4c-30.4 0-55.1 24.7-55.1 55.1s24.7 55.1 55.1 55.1c30.4 0 55.1-24.7 55.1-55.1s-24.6-55.1-55.1-55.1z m354.5 0c-30.4 0-55.1 24.7-55.1 55.1s24.7 55.1 55.1 55.1c30.4 0 55.1-24.7 55.1-55.1s-24.7-55.1-55.1-55.1zM239.5 234.9L218 335.2l621.8-0.3L820 234.6l-580.5 0.3z"  horiz-adv-x="1024" />

    
    <glyph glyph-name="fankui" unicode="&#59371;" d="M797.3 547.6c-15.3 0-27.7-12.4-27.7-27.8v-422.6c0-37.8-30.7-68.6-68.5-68.6H267.6c-37.8 0-68.5 30.7-68.5 68.6v530c0 37.8 30.7 68.6 68.5 68.6h322.9c15.3 0 27.7 12.4 27.7 27.8 0 15.3-12.4 27.8-27.7 27.8H267.6c-68.5-0.1-123.9-55.6-124-124.1v-530c0.1-68.5 55.6-124 124-124.1H701c68.5 0.1 123.9 55.6 124 124.1V519.8c0 15.4-12.4 27.8-27.7 27.8z m77.1 239.6c-10.7 10.7-28 10.9-38.9 0.3l-266.9-267c-7.9-7.9-10.3-19.9-6-30.2 4.3-10.4 14.4-17.1 25.6-17.1 7.4 0 14.4 2.9 19.6 8.2l266.8 266.9c10.6 10.9 10.5 28.2-0.2 38.9zM482.3 431.9H286.4c-15.3 0-27.7-12.4-27.7-27.8 0-15.3 12.4-27.8 27.7-27.8h195.9c15.3 0 27.7 12.4 27.7 27.8s-12.4 27.8-27.7 27.8zM258.7 221.8c0-15.3 12.4-27.8 27.7-27.8h394.1c9.9 0 19.1 5.3 24 13.9 5 8.6 5 19.2 0 27.8s-14.1 13.9-24 13.9H286.4c-15.3 0-27.7-12.4-27.7-27.8z"  horiz-adv-x="1024" />

    
    <glyph glyph-name="shangpinduibi" unicode="&#59372;" d="M643.3 220.1c-18.1 0-32.8-14.7-32.8-32.8v-196.6c0-18.1 14.7-32.8 32.8-32.8 18.1 0 32.7 14.7 32.7 32.8V187.4c0.1 18.1-14.6 32.7-32.7 32.7z m131 131.1c-18.1 0-32.7-14.7-32.7-32.8v-327.7c0-18.1 14.7-32.8 32.7-32.8 18.1 0 32.8 14.7 32.8 32.8V318.5c-0.1 18.1-14.7 32.7-32.8 32.7z m131-65.5c-18.1 0-32.8-14.7-32.8-32.8v-262.2c0-18.1 14.7-32.8 32.8-32.8 18.1 0 32.7 14.7 32.7 32.8V252.9c0 18.1-14.6 32.8-32.7 32.8zM883 444.6c0 2.1-0.8 4-1.2 6l-14.9 134.3c-1.8 16.6-15.7 29.1-32.3 29.1H671.7v32.7c0 90.2-73 163.5-162.7 163.5s-162.8-73.4-162.8-163.5V614H183.4c-16.6 0-30.5-12.5-32.4-29.1L85.9-4c-1-9.2 1.9-18.5 8.1-25.4 6.2-7 15-10.9 24.2-10.9H444c18 0 32.6 14.6 32.6 32.7 0 18-14.6 32.7-32.6 32.7H154.7l57.9 523.4h133.6v-98.2c0-18.1 14.5-32.8 32.6-32.8 17.9 0 32.6 14.7 32.6 32.8v98.2h195.3v-98.2c0-18.1 14.5-32.8 32.5-32.8s32.6 14.7 32.6 32.8v98.2h133.7L817.3 440l0.9 0.1c2.3-16 15.4-28.5 31.9-28.5 18.2 0.1 32.9 14.8 32.9 33zM606.6 614H411.3v32.7c0 54.1 43.8 98.1 97.7 98.1 53.8 0 97.7-44 97.7-98.1V614z m0 0"  horiz-adv-x="1024" />

    
    <glyph glyph-name="kefu" unicode="&#59373;" d="M840.5 350.8c-8.5 188.8-152.3 339-328.5 339-176.1 0-319.9-150.3-328.4-339-61.6-12.4-108-68-108-134.8 0-75.9 60-137.3 134.1-137.3h81.2V353.4h-46.2c9.6 151.2 125.6 270.5 267.3 270.5 141.7 0 257.7-119.3 267.3-270.5h-46v-274.6h81.2c74.1 0 134.1 61.4 134.1 137.3-0.1 66.8-46.5 122.3-108.1 134.7zM244.2 120.7h-27.6c-52.8 0-95.6 42.7-95.6 95.3 0 52.5 42.8 95.3 95.6 95.3h27.6v-190.6z m563.2 0h-27.5V311.3h27.5c52.9 0 95.6-42.7 95.6-95.3 0-52.5-42.7-95.3-95.6-95.3z"  horiz-adv-x="1024" />

    
    <glyph glyph-name="liwu" unicode="&#59374;" d="M821.1-44.9H553.4v350h330.4v-287.3c0-34.5-28.2-62.7-62.7-62.7zM553.4 554.6c-11.5 3.1-30.4 8.1-38.5 15.6-0.6 0.5-1 1.2-1.6 1.8-0.5-0.6-1-1.2-1.6-1.8-8.1-7.5-15.4-12.5-26.9-15.6v-181H137.1V519.4c0 34.5 28.2 62.7 62.7 62.7h145.6c-16.4 9.2-31.7 19.9-44.6 31.8-58.2 54.3-68.7 132.5-23.5 174.7 19 17.7 44.7 26.2 72.5 26.2 38.6 0 81.1-16.5 115-48 19.7-18.3 36.5-41.9 48.5-66.7 12 24.8 28.8 48.4 48.5 66.7 33.8 31.5 76.4 48 115 48 27.8 0 53.5-8.6 72.5-26.2 45.3-42.2 34.8-120.4-23.5-174.7-12.8-12-28.1-22.6-44.6-31.8H821c34.5 0 62.7-28.2 62.7-62.7v-145.8H553.4v181zM421.2 720c-20.8 19.3-47.4 30.8-71.4 30.8-7.2 0-20.4-1.2-28.9-9.1-1.9-1.8-7.8-7.2-7.8-20.7 0-15.1 8.2-38.9 31.2-60.4 28.1-26.2 74.6-46 108-46 11.8 0 15.9 2.6 16 2.6 5.6 11-7.8 66.2-47.1 102.8z m138-103.6c0.8 0 5.4-1.7 15.1-1.7 33.4 0 79.9 19.8 108 46 23 21.5 31.2 45.2 31.2 60.3 0 13.5-5.8 18.9-7.8 20.7-8.5 7.9-21.7 9.1-28.9 9.1-24 0-50.6-11.5-71.4-30.8-38.9-36.4-52.4-91-46.2-103.6z m-74.3-661.3H199.8c-34.5 0-62.7 28.2-62.7 62.7V305.1h347.8v-350z m0 0"  horiz-adv-x="1024" />

    


  </font>
</defs>
</svg>
